<svg width="310" height="125" viewBox="0 0 310 125" fill="none" xmlns="http://www.w3.org/2000/svg">
<path d="M5.55973 113.706C6.81516 112.091 8.24993 110.477 10.0434 108.684V46.4507C8.24993 48.2441 6.81516 49.8583 5.55973 51.4724V113.706ZM0 125.004C0.448366 122.942 1.16575 120.969 2.24183 118.907V56.6734C1.16575 58.6462 0.448366 60.7087 0 62.7712V125.004ZM12.2852 44.2089V106.442C15.6928 103.214 20.0868 99.5372 25.6465 95.2329V81.8716C32.0133 76.9395 38.1111 72.1869 43.2224 67.4342V34.4345C38.7388 38.7388 33.3584 42.8638 27.709 47.2577L39.6355 57.3011C35.4209 60.9777 30.5785 64.6543 25.6465 68.5103V45.823C32.0133 40.8909 38.1111 36.1383 43.2224 31.3856V18.4727C39.3665 22.1493 34.3448 26.2742 27.7987 31.3856C21.1629 36.4073 16.1412 40.6219 12.2852 44.2089ZM49.8583 11.2988C48.6028 12.9129 47.1681 14.527 45.3746 16.3205V65.1924C47.1681 63.3989 48.6028 61.7848 49.8583 60.1707V11.2988ZM55.418 0C54.9696 2.06248 54.2522 4.03529 53.1762 6.09777V54.9696C54.2522 52.9071 54.88 50.9343 55.418 48.8719V0Z" fill="white"/>
<path d="M77.9259 29.7715H84.9204C85.5482 29.7715 86.0862 29.8612 86.6242 29.9508C87.0726 30.0405 87.521 30.2198 87.8797 30.4889C88.2384 30.7579 88.5074 31.0269 88.6867 31.2959C88.8661 31.6546 88.9557 32.0133 88.9557 32.372C88.9557 32.8204 88.8661 33.1791 88.6867 33.4481C88.5074 33.8068 88.2384 34.0758 87.8797 34.2551C87.521 34.5242 87.1623 34.7035 86.6242 34.7932C86.1759 34.8828 85.5482 34.9725 84.9204 34.9725H80.8852V37.9317H77.9259V29.7715ZM85.9069 31.5649H80.9748V33.2687H85.9069V31.5649Z" fill="white"/>
<path d="M90.5699 29.7715H93.5291V32.8204H98.7301V29.7715H101.779V38.1111H98.7301V34.6138H93.5291V38.1111H90.5699V29.7715Z" fill="white"/>
<path d="M107.339 33.8068L102.496 29.7715H106.173L108.863 32.0133L111.553 29.7715H115.23L110.388 33.8068V38.1111H107.339V33.8068Z" fill="white"/>
<path d="M117.292 37.9317C116.844 37.8421 116.396 37.6627 116.037 37.3937C115.678 37.1247 115.409 36.8557 115.23 36.5866C115.051 36.2279 114.961 35.8692 114.961 35.5106V32.4617C114.961 31.6546 115.32 30.9372 115.947 30.4889C116.665 30.0405 117.561 29.7715 118.817 29.7715H122.942C124.197 29.7715 125.184 30.0405 125.811 30.4889C126.529 30.9372 126.798 31.6546 126.798 32.4617H123.839V31.6546H117.83V36.3176H123.839V35.5106H120.969V33.6274H126.798V35.5106C126.798 35.9589 126.708 36.3176 126.529 36.5866C126.349 36.9453 126.08 37.2143 125.722 37.3937C125.363 37.6627 125.004 37.8421 124.466 37.9317C124.018 38.0214 123.39 38.1111 122.763 38.1111H118.727C118.369 38.1111 117.741 38.0214 117.292 37.9317Z" fill="white"/>
<path d="M131.819 29.7715H128.86V38.1111H131.819V29.7715Z" fill="white"/>
<path d="M137.29 31.5649H133.344V29.7715H144.284V31.5649H140.338V38.1111H137.29V31.5649Z" fill="white"/>
<path d="M148.05 29.7715H152.355L157.197 38.1111H154.058L152.982 36.2279H147.512L146.436 38.1111H143.298L148.05 29.7715ZM151.906 34.4345L150.202 31.4753L148.499 34.4345H151.906Z" fill="white"/>
<path d="M158.004 29.7715H160.963V36.2279H167.778V38.1111H158.004V29.7715Z" fill="white"/>
<path d="M83.3063 66.2684C82.1406 65.9994 81.1542 65.5511 80.3471 65.013C79.5401 64.475 78.9123 63.7576 78.5537 63.0402C78.1053 62.2332 77.9259 61.4261 77.9259 60.4397V53.2658C77.9259 51.293 78.733 49.6789 80.3471 48.6028C81.9612 47.4371 84.2927 46.899 87.252 46.899H97.0263C100.075 46.899 102.317 47.4371 103.931 48.6028C105.545 49.7686 106.352 51.293 106.352 53.2658H99.1785V51.1137H84.9204V62.2332H99.1785V60.2603H92.3633V55.8664H106.352V60.2603C106.352 61.2467 106.173 62.1435 105.725 62.8609C105.276 63.6679 104.738 64.2956 103.931 64.9233C103.124 65.4614 102.138 65.9098 100.972 66.1788C99.8062 66.4478 98.4611 66.6271 97.0263 66.6271H87.252C85.8172 66.7168 84.5618 66.5375 83.3063 66.2684Z" fill="white"/>
<path d="M118.279 46.7197H128.502L139.89 66.7168H132.447L129.847 62.3228H116.754L114.154 66.7168H106.711L118.279 46.7197ZM127.336 57.8392L123.39 50.8447L119.445 57.8392H127.336Z" fill="white"/>
<path d="M141.953 46.7197H153.61L160.515 61.0674L167.33 46.7197H179.077V66.7168H171.903V50.755L164.191 66.7168H156.749L149.037 50.755V66.7168H141.953V46.7197Z" fill="white"/>
<path d="M184.189 46.7197H210.283V51.2034L191.273 51.1137V53.9832H207.414V58.4669H191.273V62.3228H210.283V66.7168H184.189V46.7197Z" fill="white"/>
<path d="M215.126 65.013C213.512 63.8473 212.705 62.3228 212.705 60.35H219.878V62.3228H233.868V58.4669H222.21C220.506 58.4669 219.071 58.2875 217.906 57.9288C216.74 57.5701 215.754 57.1218 215.036 56.4941C214.319 55.956 213.781 55.3283 213.422 54.6109C213.063 53.8936 212.884 53.2658 212.884 52.6381C212.884 51.8311 213.063 51.024 213.512 50.3066C213.96 49.5892 214.498 48.9615 215.305 48.4235C216.112 47.8854 217.099 47.5268 218.175 47.1681C219.34 46.899 220.596 46.7197 222.12 46.7197H231.536C233.06 46.7197 234.406 46.899 235.571 47.1681C236.737 47.4371 237.723 47.8854 238.531 48.4235C239.338 48.9615 239.965 49.6789 240.324 50.486C240.772 51.293 240.952 52.1898 240.952 53.0865H233.868V51.1137H219.878V53.9832H231.536C234.585 53.9832 236.916 54.5213 238.531 55.687C240.145 56.8528 240.952 58.3772 240.952 60.2603C240.952 61.2467 240.772 62.1435 240.324 62.9505C239.876 63.7576 239.338 64.3853 238.531 65.013C237.723 65.5511 236.737 65.9994 235.571 66.2684C234.406 66.5375 233.06 66.7168 231.536 66.7168H222.12C219.071 66.7168 216.74 66.1788 215.126 65.013Z" fill="white"/>
<path d="M255.927 66.7168C254.403 66.7168 253.237 66.4478 252.43 65.8201C251.623 65.282 251.174 64.475 251.174 63.4886V59.9016C251.174 59.4533 251.264 59.0049 251.533 58.5566C251.712 58.1979 252.071 57.8392 252.43 57.5701C252.789 57.3011 253.327 57.1218 253.865 56.9424C254.403 56.7631 255.12 56.6734 255.837 56.6734H260.68C261.397 56.6734 262.115 56.7631 262.653 56.9424C263.191 57.1218 263.729 57.3011 264.087 57.5701C264.446 57.8392 264.805 58.1979 264.984 58.5566C265.163 58.9152 265.343 59.3636 265.343 59.9016V63.4886C265.343 64.475 264.894 65.282 264.087 65.8201C263.28 66.3581 262.115 66.7168 260.59 66.7168H255.927ZM261.935 64.475V58.9152H254.761V64.475H261.935Z" fill="white"/>
<path d="M267.764 56.7631H279.78V58.9152H271.351V60.35H278.345V62.5918H271.351V66.7168H267.764V56.7631Z" fill="white"/>
<path d="M82.6786 77.4776H77.9259V75.2358H91.0182V77.4776H86.2655V85.1895H82.6786V77.4776Z" fill="white"/>
<path d="M92.722 75.2358H96.3089V78.9124H102.496V75.2358H106.083V85.1895H102.496V81.0645H96.3089V85.1895H92.722V75.2358Z" fill="white"/>
<path d="M108.684 75.2358H121.686V77.4776H112.181V78.9124H120.252V81.0645H112.181V83.0373H121.686V85.1895H108.594L108.684 75.2358Z" fill="white"/>
<path d="M131.909 75.2358L155.852 75.3254V79.7194H139.083V82.4993L152.982 82.589V86.9829H139.083L138.993 95.2329H131.909V75.2358Z" fill="white"/>
<path d="M164.64 94.7845C163.474 94.5155 162.488 94.0671 161.681 93.5291C160.874 92.991 160.246 92.2736 159.887 91.4666C159.439 90.6595 159.259 89.7628 159.259 88.8661V75.3254H166.344V90.8389H179.705V75.3254H186.789V88.8661C186.789 89.8525 186.61 90.7492 186.161 91.4666C185.713 92.2736 185.175 92.9014 184.368 93.5291C183.561 94.0671 182.574 94.5155 181.409 94.7845C180.243 95.0535 178.898 95.2329 177.463 95.2329H168.585C167.151 95.2329 165.806 95.0535 164.64 94.7845Z" fill="white"/>
<path d="M199.612 79.7194H190.017V75.3254H216.292V79.7194H206.697V95.2329H199.612V79.7194Z" fill="white"/>
<path d="M224.811 94.7845C223.645 94.5155 222.658 94.0671 221.851 93.5291C221.044 92.991 220.417 92.2736 220.058 91.4666C219.609 90.6595 219.43 89.7628 219.43 88.8661V75.3254H226.514V90.8389H239.876V75.3254H246.96V88.8661C246.96 89.8525 246.78 90.7492 246.332 91.4666C245.884 92.2736 245.346 92.9014 244.539 93.5291C243.732 94.0671 242.745 94.5155 241.579 94.7845C240.414 95.0535 239.069 95.2329 237.634 95.2329H228.756C227.321 95.2329 225.976 95.0535 224.811 94.7845Z" fill="white"/>
<path d="M251.892 75.3254H270.364C271.889 75.3254 273.234 75.5048 274.4 75.7738C275.566 76.0428 276.552 76.4912 277.359 77.0292C278.166 77.5673 278.794 78.2846 279.152 79.002C279.601 79.8091 279.78 80.6161 279.78 81.6025C279.78 82.9476 279.421 84.1134 278.614 85.0998C277.807 86.0862 276.642 86.8036 275.207 87.3416L279.78 95.2329H272.248L268.123 88.1487H259.066V95.2329H251.981L251.892 75.3254ZM272.696 83.5753V79.7194H258.976V83.5753H272.696Z" fill="white"/>
<path d="M283.905 75.3254H310V79.7194H291.079V82.589H307.13V86.9829H291.079V90.8389H310V95.2329H283.905V75.3254Z" fill="white"/>
</svg>
